<?xml version="1.0" encoding="UTF-8" standalone="no"?>
<svg xmlns="http://www.w3.org/2000/svg"
  xmlns:xlink="http://www.w3.org/1999/xlink"
  width="48" height="48" version="1.1">
 <defs>
  <linearGradient id="lg12709">
   <stop style="stop-color:#9c27b0;stop-opacity:0.6;" offset="0" />
   <stop style="stop-color:#7e57c2;stop-opacity:0;" offset="1" />
  </linearGradient>
  <linearGradient id="lg12092">
   <stop style="stop-color:#9c27b0;stop-opacity:0.8;" offset="0" />
   <stop style="stop-color:#7e57c2;stop-opacity:0;" offset="1" />
  </linearGradient>
  <linearGradient id="lg10434">
   <stop style="stop-color:#ba68c8;stop-opacity:1" offset="0" />
   <stop style="stop-color:#ab47bc;stop-opacity:1" offset="1" />
  </linearGradient>
  <linearGradient id="lg10436"
    gradientUnits="userSpaceOnUse"
    xlink:href="#lg10434"
    x1="16" y1="0"
    x2="24" y2="48" />
  <linearGradient id="lg11583"
    gradientUnits="userSpaceOnUse"
    xlink:href="#lg12092"
    x1="12" y1="12"
    x2="18" y2="18" />
  <linearGradient id="lg12198"
    gradientUnits="userSpaceOnUse"
    xlink:href="#lg12709"
    x1="19" y1="8"
    x2="28" y2="18"
    gradientTransform="translate(11)" />
 </defs>
 <g>
  <rect
    style="fill:#9c27b0"
    width="40" height="40" x="4" y="4" rx="4" />
  <rect
    style="fill:url(#lg10436)"
    width="40" height="39" x="4" y="4" rx="4" />
  <g id="g9934">
   <path
     style="fill:url(#lg11583)"
     d="M 16.25,8.5 22,14.25 14.25,22 8.5,16.25 Z" />
   <path
     style="fill:url(#lg12198)"
     d="M 39.25,8.5 44,13.25 V 22 H 25.25 L 19.5,16.25 Z" />
   <rect
     style="fill:#bdbdbd"
     width="9" height="9" x="8" y="8" rx="2" />
   <rect
     style="fill:#fafafa"
     width="9" height="8" x="8" y="8" rx="2" />
   <rect
     style="fill:#bdbdbd"
     width="21" height="9" x="19" y="8" rx="2" />
   <rect
     style="fill:#fafafa"
     width="21" height="8" x="19" y="8" rx="2" />
  </g>
  <use xlink:href="#g9934" transform="translate(0,11)" />
  <use xlink:href="#g9934" transform="translate(0,22)" />
 </g>
</svg>
